<svg width="32" height="32" viewBox="0 0 32 32" fill="none" xmlns="http://www.w3.org/2000/svg">
<path fill-rule="evenodd" clip-rule="evenodd" d="M25.3819 26.7224C25.752 27.0925 26.3521 27.0925 26.7222 26.7224C27.0923 26.3523 27.0923 25.7522 26.7222 25.3821L17.3401 15.9999L26.7221 6.6179C27.0922 6.24778 27.0922 5.64771 26.7221 5.2776C26.352 4.90748 25.7519 4.90748 25.3818 5.2776L15.9998 14.6596L6.61783 5.27759C6.24772 4.90747 5.64765 4.90747 5.27753 5.27759C4.90742 5.6477 4.90742 6.24777 5.27753 6.61789L14.6595 15.9999L5.2774 25.3821C4.90729 25.7522 4.90729 26.3523 5.2774 26.7224C5.64751 27.0925 6.24758 27.0925 6.61769 26.7224L15.9998 17.3402L25.3819 26.7224Z" fill="#111414"/>
</svg>
