<svg width="32" height="32" viewBox="0 0 32 32" fill="none" xmlns="http://www.w3.org/2000/svg">
<path d="M21.7758 18.5409C21.459 18.3819 19.9006 17.6161 19.6105 17.5094C19.3193 17.4038 19.1081 17.3515 18.8958 17.6694C18.6857 17.9862 18.0777 18.6998 17.8932 18.911C17.7086 19.1233 17.523 19.1489 17.2062 18.991C16.8894 18.831 15.8676 18.4971 14.6569 17.4177C13.715 16.5771 13.0782 15.5393 12.8937 15.2214C12.7092 14.9046 12.8745 14.7329 13.0324 14.575C13.1753 14.4331 13.3502 14.2049 13.5081 14.0203C13.667 13.8347 13.7193 13.7025 13.826 13.4902C13.9316 13.279 13.8793 13.0945 13.7993 12.9355C13.7193 12.7766 13.0857 11.2161 12.8222 10.5814C12.5641 9.96379 12.3028 10.0481 12.1086 10.0374C11.9241 10.0289 11.7129 10.0267 11.5006 10.0267C11.2894 10.0267 10.946 10.1057 10.6558 10.4235C10.3657 10.7403 9.5465 11.5073 9.5465 13.0678C9.5465 14.6273 10.6825 16.1345 10.8404 16.3467C10.9993 16.5579 13.0761 19.7601 16.2558 21.1329C17.0121 21.4593 17.602 21.6545 18.0628 21.7995C18.8222 22.0417 19.5134 22.0075 20.0585 21.9254C20.6676 21.8347 21.9337 21.1585 22.1982 20.4182C22.4628 19.6779 22.4628 19.0433 22.3828 18.911C22.3038 18.7787 22.0937 18.6998 21.7758 18.5409ZM15.9924 26.4374H15.9881C14.0998 26.4375 12.2463 25.9299 10.6217 24.9675L10.2366 24.7393L6.24623 25.7867L7.31076 21.8955L7.0601 21.4966C6.00456 19.8158 5.44617 17.8707 5.44943 15.8859C5.4505 10.0726 10.1812 5.34299 15.9966 5.34299C18.8126 5.34299 21.4601 6.44166 23.4505 8.43419C24.4326 9.41191 25.2109 10.5747 25.7406 11.8552C26.2703 13.1358 26.5408 14.5087 26.5364 15.8945C26.5332 21.7078 21.8036 26.4374 15.9924 26.4374ZM24.9662 6.92059C23.791 5.73757 22.3926 4.79956 20.8522 4.16091C19.3118 3.52226 17.6599 3.19566 15.9924 3.20006C9.00036 3.20006 3.3097 8.89072 3.3065 15.8849C3.3065 18.1206 3.88996 20.303 5.00036 22.2262L3.19983 28.8001L9.92516 27.0358C11.785 28.049 13.8691 28.5801 15.987 28.5803H15.9924C22.9833 28.5803 28.675 22.8897 28.6782 15.8945C28.6834 14.2275 28.358 12.5762 27.7208 11.0358C27.0837 9.49549 26.1474 8.09677 24.9662 6.92059Z" fill="white"/>
</svg>
